# xmcd CD database file
#
# Track frame offsets:
#	150
#	27155
#	56000
#	108517
#	132060
#	182610
#	207815
#	234707
#	248770
#	263542
#	284674
#	301831
#
# Disc length: 4352 seconds
#
# Revision: 0
# Processed by: cddbd v1.5.1PL0 Copyright (c) Steve Scherf et al.
# Submitted via: CDex 1.50
#
DISCID=a210fe0c
DTITLE=Luther Allison - Love Me Papa
DYEAR=1977
DGENRE=Blues
TTITLE0=Love Me Papa
TTITLE1=Blues With A Feeling
TTITLE2=Last Night
TTITLE3=Key To The Highway
TTITLE4=It's Too Late
TTITLE5=Feelin So Good
TTITLE6=Going Down
TTITLE7=Luthers Boogie
TTITLE8=Standing At The CrossRoads
TTITLE9=Travelin South - Albert Collins
TTITLE10=Rock Me Baby - Lightin Hopkins
TTITLE11=Aint It Funny How Time Slips Away - W.C. Clark
EXTD=YEAR: 1977
EXTT0=
EXTT1=
EXTT2=
EXTT3=
EXTT4=
EXTT5=
EXTT6=
EXTT7=
EXTT8=
EXTT9=
EXTT10=
EXTT11=
PLAYORDER=
